<svg width="68" height="40" viewBox="0 0 68 40" fill="none" xmlns="http://www.w3.org/2000/svg">
<path d="M67.8965 27.2672L66.0351 17.2783C65.1253 12.4744 60.9112 8.98731 56.0157 8.98731L46.8745 8.98679C46.2836 3.94145 41.9627 0 36.7708 0H13.4341C10.6355 0 8.10306 1.42911 6.66126 3.82175C6.34814 4.33993 6.51472 5.01415 7.03395 5.32724C7.5495 5.63931 8.22582 5.47378 8.53944 4.95455C9.58214 3.22559 11.4113 2.1939 13.434 2.1939H36.7721C41.1326 2.1939 44.713 5.73739 44.7531 10.0842V31.7719H26.3299C25.8001 28.8732 23.2609 26.6665 20.2108 26.6665C17.1828 26.6665 14.661 28.8732 14.1354 31.7719H13.4332C11.5312 31.7719 9.76058 30.8325 8.69786 29.2606C8.35785 28.7598 7.67783 28.6265 7.17496 28.9659C6.67311 29.3054 6.54081 29.987 6.88029 30.4888C8.3515 32.666 10.8012 33.9659 13.4333 33.9659H14.1291C14.6399 36.8631 17.1691 39.0729 20.2102 39.0729C23.2728 39.0729 25.8205 36.8631 26.3351 33.9659H44.8352C45.346 36.8631 47.8752 39.0729 50.9163 39.0729C53.979 39.0729 56.5266 36.8631 57.0412 33.9659H62.369C64.0595 33.9659 65.6437 33.2216 66.7142 31.9248C67.7869 30.6238 68.2171 28.9238 67.8966 27.2664L67.8965 27.2672ZM20.2109 36.8792C18.0128 36.8792 16.2236 35.0906 16.2236 32.8919C16.2236 30.6694 18.0122 28.8603 20.2109 28.8603C22.4334 28.8603 24.2425 30.6689 24.2425 32.8919C24.2415 35.0901 22.4334 36.8792 20.2109 36.8792ZM50.9172 36.8792C48.7486 36.8792 46.9821 35.1381 46.9335 32.9804C46.9372 32.9435 46.9451 32.9071 46.9451 32.8692V32.5782C47.1043 30.5012 48.8228 28.8602 50.9167 28.8602C53.1391 28.8602 54.9482 30.6688 54.9482 32.8918C54.9488 35.09 53.1402 36.8792 50.9172 36.8792L50.9172 36.8792ZM65.0234 30.5283C64.3703 31.319 63.404 31.7723 62.3709 31.7723H57.0373C56.5075 28.8736 53.9683 26.6669 50.9181 26.6669C49.4069 26.6669 48.0215 27.2178 46.9466 28.1292V11.181H56.0167C59.8585 11.181 63.1662 13.9174 63.8801 17.6834L65.742 27.677C65.9386 28.6971 65.6772 29.7361 65.0235 30.5289L65.0234 30.5283Z" fill="#2DADFF"/>
<path d="M12.7928 12.6819C12.7928 12.0767 12.3015 11.5854 11.6963 11.5854H1.09646C0.491295 11.5854 0 12.0767 0 12.6819C0 13.2871 0.491295 13.7784 1.09646 13.7784H11.6963C12.3015 13.7784 12.7928 13.2871 12.7928 12.6819Z" fill="#2DADFF"/>
<path d="M12.7928 21.2836C12.7928 20.6784 12.3015 20.1871 11.6963 20.1871H3.88563C3.28046 20.1871 2.78917 20.6784 2.78917 21.2836C2.78917 21.8888 3.28046 22.3801 3.88563 22.3801H11.6958C12.3015 22.3806 12.7928 21.8893 12.7928 21.2836H12.7928Z" fill="#2DADFF"/>
</svg>
