<svg width="82" height="82" viewBox="0 0 82 82" fill="none" xmlns="http://www.w3.org/2000/svg">
<circle cx="41" cy="41" r="41" fill="#2DADFF"/>
<path d="M41.3468 65.6921C39.5965 65.6921 37.9587 64.9698 36.7352 63.6603L35.0341 61.8397C34.6139 61.3889 34.1124 61.0423 33.5443 60.8064L33.1035 60.6243C32.5339 60.3884 31.9334 60.2895 31.319 60.3005L28.8286 60.3859C27.0252 60.4613 25.3688 59.7982 24.1313 58.5612C22.8935 57.3234 22.2459 55.655 22.307 53.8639L22.3916 51.3735C22.413 50.7591 22.3044 50.1589 22.0682 49.5882L21.8861 49.1474C21.6539 48.5878 21.2962 48.0715 20.8528 47.6576L19.0322 45.9565C17.7219 44.7341 17.0008 43.0964 17 41.3461C17 39.5957 17.7216 37.9579 19.0314 36.7356L20.8528 35.0345C21.2966 34.6206 21.6539 34.1043 21.8861 33.5436L22.0689 33.1028C22.3048 32.5332 22.4133 31.9327 22.3924 31.3186L22.307 28.8282C22.2459 27.037 22.8935 25.3687 24.1313 24.1317C25.368 22.8935 27.03 22.2345 28.8286 22.307L31.3186 22.3924C31.9364 22.4082 32.5339 22.3041 33.1039 22.0686L33.5447 21.8864C34.1128 21.6506 34.6147 21.304 35.0345 20.8532L36.7356 19.0314C37.9587 17.7212 39.5961 17 41.3468 17C43.0968 17 44.7342 17.7212 45.9576 19.0308L47.6587 20.8525C48.0789 21.3033 48.5805 21.6499 49.1485 21.8858L49.5893 22.0679C50.1589 22.3038 50.7653 22.4046 51.3739 22.3917L53.8643 22.3064C55.6441 22.2291 57.3231 22.8918 58.5608 24.1292C59.7986 25.3675 60.4466 27.0357 60.3855 28.828L60.3001 31.3177C60.2799 31.9333 60.3884 32.5334 60.6247 33.1041L60.8068 33.5438C61.0419 34.1116 61.3896 34.6127 61.8404 35.0347L63.6607 36.7336C64.9713 37.9581 65.6925 39.5967 65.6925 41.347C65.6921 43.0966 64.9709 44.7341 63.661 45.9564L61.8397 47.6575C61.3959 48.0715 61.0386 48.5877 60.8064 49.1485L60.6235 49.5893C60.3884 50.1578 60.2799 50.7583 60.3005 51.3735L60.3858 53.8638C60.4469 55.6551 59.7993 57.3234 58.5615 58.5604C57.3241 59.7986 55.6499 60.4565 53.8643 60.3851L51.3739 60.2997C50.7546 60.2857 50.1571 60.388 49.59 60.6235L49.1477 60.8056C48.5796 61.0415 48.0777 61.3881 47.6579 61.8389L45.9568 63.6595C44.7341 64.9701 43.0967 65.6924 41.3467 65.6924L41.3468 65.6921ZM31.4694 58.2694C32.2984 58.2694 33.1082 58.4309 33.8795 58.7499L34.3203 58.9321C35.1589 59.2787 35.8981 59.7909 36.5177 60.4546L38.2188 62.2753C39.0541 63.1701 40.1645 63.6632 41.3472 63.6632C42.529 63.6632 43.6395 63.1697 44.4751 62.2753L46.1762 60.4546C46.7959 59.7908 47.5351 59.2787 48.3736 58.9321L48.8141 58.7495C49.6501 58.4029 50.5339 58.2374 51.4442 58.273L53.9346 58.3584C55.1551 58.3842 56.2917 57.9621 57.1281 57.1261C57.9637 56.2901 58.4012 55.1569 58.3588 53.9333L58.2735 51.443C58.2429 50.5367 58.4026 49.6517 58.7496 48.814L58.9328 48.372C59.275 47.546 59.8016 46.7861 60.4554 46.1758L62.2768 44.4747C63.1717 43.6394 63.664 42.5278 63.6643 41.3459C63.6643 40.164 63.1716 39.0524 62.2768 38.2164L60.4562 36.5176C59.7913 35.8954 59.2795 35.1566 58.9332 34.3202L58.7503 33.8794C58.403 33.0393 58.2426 32.1547 58.2735 31.2481L58.3588 28.7585C58.4008 27.5339 57.9637 26.3999 57.1273 25.5647C56.2917 24.7287 55.1654 24.3166 53.9345 24.3331L51.4442 24.4185C50.5379 24.4512 49.6529 24.289 48.814 23.9424L48.3732 23.7602C47.5346 23.4136 46.7954 22.9014 46.1758 22.2376L44.4747 20.4159C43.6398 19.521 42.529 19.0286 41.3471 19.0286C40.1648 19.0286 39.0536 19.521 38.2187 20.4155L36.5176 22.2373C35.898 22.901 35.1588 23.4132 34.3202 23.7598L33.8794 23.9424C33.0405 24.289 32.1548 24.4527 31.2493 24.4189L28.7593 24.3335C27.5274 24.3066 26.4022 24.7298 25.5658 25.5658C24.7302 26.4018 24.2927 27.535 24.335 28.7586L24.4204 31.2492C24.451 32.1547 24.2905 33.0393 23.9439 33.8782L23.7607 34.3201C23.4185 35.1462 22.8919 35.906 22.2381 36.5164L20.4167 38.2175C19.5218 39.0535 19.0292 40.164 19.0292 41.3459C19.0295 42.5278 19.5219 43.6382 20.4171 44.4735L22.2377 46.1752C22.9004 46.7934 23.4126 47.5322 23.7607 48.3715L23.9435 48.8134C24.2909 49.6524 24.4506 50.5381 24.4197 51.4436L24.335 53.9332C24.2931 55.1566 24.7302 56.29 25.5658 57.126C26.4025 57.962 27.5638 58.391 28.7593 58.3583L31.2496 58.2729C31.3232 58.27 31.3957 58.2692 31.4693 58.2692L31.4694 58.2694ZM46.9176 61.1472H46.9275H46.9176Z" fill="white"/>
<path d="M41.3474 57.4705C32.4565 57.4705 25.2229 50.2369 25.2229 41.346C25.2229 32.4551 32.4565 25.2214 41.3474 25.2214C50.2383 25.2214 57.472 32.4554 57.472 41.346C57.472 50.2365 50.2387 57.4705 41.3474 57.4705ZM41.3474 27.2495C33.5747 27.2495 27.2519 33.5728 27.2519 41.345C27.2519 49.1173 33.5752 55.4406 41.3474 55.4406C49.1197 55.4406 55.443 49.1173 55.443 41.345C55.443 33.5728 49.1196 27.2495 41.3474 27.2495Z" fill="white"/>
<path d="M37.7076 46.8751C37.5048 46.8751 37.3003 46.8148 37.1222 46.6889L32.6449 43.5179C32.1875 43.1941 32.0797 42.5609 32.4035 42.1031C32.727 41.6453 33.3594 41.5383 33.8176 41.8613L37.4979 44.4687C39.1845 42.3508 44.0817 36.7398 49.2875 35.8302C49.8468 35.7412 50.3649 36.1036 50.4609 36.6555C50.5573 37.2075 50.1879 37.7326 49.6363 37.8293C44.1357 38.7893 38.5852 46.3788 38.5306 46.4549C38.3326 46.7297 38.0224 46.8751 37.7078 46.8751L37.7076 46.8751Z" fill="white"/>
</svg>
