<svg width="82" height="82" viewBox="0 0 82 82" fill="none" xmlns="http://www.w3.org/2000/svg">
<circle cx="41" cy="41" r="41" fill="#2DADFF"/>
<path d="M34.3815 32.5109L32.247 32.4035V32.4037C30.5256 32.3173 28.8479 32.9621 27.6271 34.1789L24.4316 37.3744C24.158 37.6474 24.0391 38.0393 24.1145 38.4183C24.19 38.7973 24.45 39.1138 24.8074 39.2613L29.5923 41.2429C29.2044 42.3479 28.8844 43.4759 28.6344 44.6201C28.5745 44.8949 28.6586 45.1811 28.8573 45.3798L34.8852 51.4077V51.4074C35.0839 51.6064 35.3701 51.6902 35.6449 51.6303C36.7891 51.3803 37.9168 51.0603 39.0221 50.6724L41.0078 55.4616C41.1552 55.819 41.4717 56.0791 41.8508 56.1545C42.2297 56.23 42.6217 56.111 42.8947 55.8374L46.0902 52.642C47.3078 51.4217 47.9529 49.7437 47.8653 48.0221L47.7579 45.8876C54.76 40.3842 58.9632 32.2015 60.2593 21.5542C60.3105 21.1309 60.1645 20.7076 59.863 20.4063C59.5618 20.1048 59.1384 19.9588 58.7151 20.0101C48.0679 21.3063 39.8853 25.5134 34.3818 32.5115L34.3815 32.5109ZM58.5784 21.6904C57.2698 31.8879 53.1741 39.6783 46.4155 44.8434C46.2 45.0087 46.0797 45.2696 46.0935 45.5412L46.2257 48.1051V48.1048C46.2887 49.3607 45.8179 50.5844 44.9292 51.4739L42.2581 54.145L40.2434 49.3106C40.0718 48.8982 39.6038 48.6969 39.1865 48.8564C38.059 49.2864 36.9048 49.6423 35.731 49.9214L30.3638 44.5542V44.5545C30.6432 43.3803 30.9988 42.2261 31.429 41.0987C31.5883 40.6817 31.387 40.2134 30.9749 40.0418L26.1445 38.0354L28.8155 35.3643C29.7054 34.4762 30.9287 34.0053 32.1843 34.0678L34.7482 34.2C35.0169 34.2014 35.2695 34.0721 35.4253 33.8533C40.59 27.0949 48.3808 22.9989 58.5783 21.6903L58.5784 21.6904ZM48.1376 36.2273C49.4111 36.2285 50.6129 35.6369 51.389 34.627C52.1648 33.617 52.4269 32.3035 52.0975 31.073C51.7683 29.8427 50.8854 28.8356 49.7087 28.348C48.5322 27.8605 47.1957 27.9483 46.0927 28.5854C44.9897 29.2224 44.2462 30.3363 44.0806 31.5991C43.915 32.8619 44.3464 34.1302 45.2475 35.0299C46.0138 35.7967 47.0534 36.2276 48.1377 36.2273L48.1376 36.2273ZM46.4158 30.4019C46.9538 29.8654 47.7106 29.6097 48.4637 29.7099C49.2167 29.8098 49.8806 30.2545 50.2595 30.9128C50.6388 31.5711 50.69 32.3682 50.3989 33.0698C50.1074 33.7716 49.5064 34.2977 48.7724 34.4939C48.0386 34.69 47.2553 34.5336 46.6528 34.0708C46.0503 33.608 45.6973 32.8912 45.6976 32.1315C45.6964 31.4821 45.955 30.8595 46.4158 30.4019L46.4158 30.4019ZM22.1356 59.2686C28.7414 59.1531 31.9615 55.6601 33.043 54.1615C33.2933 53.8124 33.2999 53.3445 33.0594 52.9882C32.8193 52.632 32.383 52.463 31.9654 52.5637C31.0997 52.789 30.1995 52.8506 29.3107 52.7455C28.8528 52.6899 28.4266 52.4822 28.1003 52.156C27.774 51.8297 27.5664 51.4035 27.5108 50.9456C27.4117 50.0603 27.4774 49.1644 27.7049 48.3033C27.8106 47.8843 27.6433 47.444 27.2859 47.2012C26.9285 46.9581 26.4577 46.9648 26.1072 47.2173C24.6126 48.3033 21.1156 51.5193 21.0001 58.113C20.9958 58.4174 21.1133 58.7108 21.3264 58.928C21.5398 59.1451 21.831 59.2678 22.1354 59.269L22.1356 59.2686ZM25.8511 49.6365H25.8514C25.8243 50.1393 25.8407 50.6436 25.9009 51.1435C26.0009 51.9683 26.3747 52.7358 26.9622 53.3232C27.5497 53.9104 28.3172 54.2842 29.1419 54.3845C29.6418 54.4441 30.1458 54.4608 30.6487 54.434C29.245 55.7757 26.7347 57.3942 22.685 57.5964C22.8831 53.5505 24.4976 51.0362 25.835 49.6328L25.8511 49.6365Z" fill="white"/>
</svg>
