<svg width="82" height="82" viewBox="0 0 82 82" fill="none" xmlns="http://www.w3.org/2000/svg">
<circle cx="41" cy="41" r="41" fill="#2DADFF"/>
<path d="M65.4722 39.0896L62.777 32.6758H62.7764C62.253 31.4227 61.3702 30.3529 60.2396 29.601C59.1089 28.8489 57.7809 28.4484 56.4231 28.45H48.4113V27.6359C48.4092 26.6672 48.0217 25.7391 47.3338 25.0568C46.6458 24.374 45.7141 23.9938 44.7453 24.0001H19.6515C18.6848 23.998 17.7573 24.3798 17.0729 25.062C16.388 25.7438 16.0021 26.6698 16 27.6359V48.3259C16.0021 49.2941 16.3875 50.2212 17.0718 50.9056C17.7562 51.5899 18.6838 51.9753 19.6515 51.9774H21.1446C21.4926 53.8727 22.7118 55.4939 24.4357 56.3543C26.1597 57.2152 28.1883 57.2152 29.9121 56.3543C31.636 55.4939 32.8547 53.8727 33.2032 51.9774H51.2053C51.5526 53.87 52.7703 55.4893 54.4921 56.3486C56.2139 57.2085 58.2393 57.2085 59.9612 56.3486C61.683 55.4892 62.9007 53.87 63.2486 51.9774C63.9918 51.954 64.6969 51.6425 65.2157 51.1092C65.7339 50.5754 66.0246 49.8613 66.0261 49.1175V41.7631C66.023 40.8444 65.835 39.935 65.4735 39.0903L65.4722 39.0896ZM18.2391 48.3253V27.6353C18.2412 27.2634 18.3912 26.9072 18.6558 26.6452C18.9203 26.3832 19.2781 26.2374 19.6505 26.2395H44.7444C45.1167 26.2374 45.4745 26.3832 45.7391 26.6452C46.0037 26.9072 46.1537 27.2634 46.1558 27.6353V49.7359H33.2239C32.8755 47.8406 31.6568 46.2193 29.9328 45.3584C28.2089 44.4981 26.1803 44.4981 24.4565 45.3584C22.7325 46.2193 21.5134 47.8406 21.1654 49.7359H19.6722C18.8874 49.7401 18.2468 49.1094 18.2384 48.3245L18.2391 48.3253ZM27.1987 54.7464C26.1659 54.7464 25.1753 54.3365 24.4446 53.6068C23.7139 52.8772 23.303 51.8872 23.3014 50.8543C23.3004 49.821 23.7087 48.8303 24.4379 48.0986C25.1665 47.3669 26.1561 46.9544 27.1888 46.9518C28.2216 46.9492 29.2133 47.3565 29.9461 48.0846C30.6789 48.8121 31.0924 49.8012 31.0966 50.8339C31.0986 51.8709 30.6877 52.8661 29.9554 53.6C29.2227 54.3343 28.2284 54.7463 27.1915 54.7463L27.1987 54.7464ZM57.2217 54.7464C55.8712 54.6875 54.6478 53.9329 53.989 52.7522C53.3302 51.5715 53.3302 50.134 53.989 48.9534C54.6478 47.7732 55.8712 47.0185 57.2217 46.9592C58.2519 46.967 59.2372 47.3805 59.9637 48.1102C60.6908 48.8399 61.1007 49.8268 61.1043 50.8565C61.1022 51.8877 60.6918 52.8762 59.9627 53.6053C59.2336 54.3345 58.2455 54.7449 57.2144 54.7465L57.2217 54.7464ZM63.7923 49.1018C63.7855 49.4111 63.56 49.6716 63.2548 49.7216C62.9069 47.8289 61.6898 46.2097 59.968 45.3504C58.2462 44.491 56.2202 44.491 54.4984 45.3504C52.7766 46.2097 51.5594 47.8289 51.2116 49.7216H48.4117V30.6902H56.4234C57.3395 30.6886 58.2354 30.9589 58.9983 31.4667C59.7607 31.9745 60.3561 32.6964 60.7086 33.5421L63.4116 39.9632C63.6564 40.5314 63.7835 41.1439 63.785 41.7626L63.7923 49.1018Z" fill="white"/>
</svg>
