<svg width="82" height="82" viewBox="0 0 82 82" fill="none" xmlns="http://www.w3.org/2000/svg">
<circle cx="41" cy="41" r="41" fill="#2DADFF"/>
<path d="M42.799 44.0455C39.2124 44.0455 35.773 42.6208 33.2369 40.0851C30.7008 37.549 29.2761 34.1092 29.2761 30.523C29.2761 26.9363 30.7008 23.4965 33.2369 20.9604C35.773 18.4247 39.2124 17 42.799 17C46.3857 17 49.825 18.4247 52.3611 20.9604C54.8973 23.4965 56.322 26.9363 56.322 30.523C56.3188 34.1084 54.8933 37.5462 52.358 40.0815C49.8223 42.6168 46.3845 44.0427 42.799 44.0455ZM42.799 18.9558C39.7294 18.9558 36.786 20.1752 34.6156 22.346C32.4452 24.5168 31.2263 27.4606 31.2267 30.5302C31.2271 33.5994 32.4473 36.543 34.6181 38.7128C36.7891 40.8828 39.7335 42.1013 42.8027 42.1005C45.8723 42.0993 48.8158 40.8787 50.9853 38.7076C53.1549 36.5361 54.3726 33.5917 54.3715 30.5225C54.3667 27.455 53.146 24.515 50.9765 22.3467C48.807 20.1784 45.8663 18.959 42.7991 18.9557L42.799 18.9558Z" fill="white"/>
<path d="M64.1312 47.6025C63.5813 46.9418 62.8193 46.4923 61.9753 46.3299C61.1312 46.1678 60.2568 46.3034 59.5012 46.7133L58.4343 45.4166H58.4339C57.9668 44.8691 57.3173 44.5093 56.6053 44.4037C55.8933 44.2984 55.1674 44.4541 54.5615 44.8427L53.5113 45.5371L52.8802 44.7855C52.4139 44.2384 51.7652 43.8786 51.0545 43.7734C50.3433 43.6677 49.6181 43.8234 49.0134 44.2116L41.8873 48.8532L33.9696 45.5943H33.97C32.7438 45.094 31.4067 44.9295 30.0961 45.1168C28.7854 45.3045 27.548 45.8376 26.5115 46.6616L16.4138 54.6937C16.1937 54.8486 16.0476 55.0875 16.0096 55.3541C15.972 55.6202 16.0456 55.8903 16.2137 56.1005C16.3818 56.3106 16.6291 56.4418 16.8973 56.4634C17.1654 56.4851 17.4308 56.3946 17.6301 56.2141L27.7277 48.182C28.4957 47.5697 29.4138 47.1739 30.3863 47.0358C31.3588 46.8973 32.3505 47.0218 33.2585 47.396L47.2577 53.1333C47.8312 53.3906 48.2298 53.9277 48.3099 54.5513C48.3899 55.1752 48.1406 55.7956 47.6507 56.1897C47.1609 56.5838 46.5013 56.6952 45.9094 56.4838L36.437 52.7892C36.1932 52.6771 35.9143 52.6703 35.6654 52.7708C35.4168 52.8712 35.2203 53.0693 35.1223 53.3191C35.0242 53.5688 35.0334 53.8477 35.1475 54.0907C35.2616 54.3332 35.4709 54.5181 35.7258 54.6021L45.1695 58.3257C45.6065 58.495 46.0716 58.5826 46.5406 58.5838C47.5079 58.5822 48.4376 58.2092 49.138 57.5416C49.8384 56.8745 50.2558 55.9641 50.3042 54.9979L50.4131 54.9407L60.2817 48.4974C60.8104 48.1688 61.4719 48.1384 62.0283 48.4173C62.5849 48.6963 62.9567 49.2441 63.01 49.8645C63.0632 50.4848 62.7906 51.0883 62.2896 51.4581L48.9215 60.9362C47.2038 62.1593 45.0223 62.5331 42.9949 61.9516L31.7097 58.7732C29.6334 58.1877 27.4014 58.6523 25.7313 60.0182L22.6905 62.5138C22.3784 62.7768 22.2631 63.2062 22.4012 63.59C22.5397 63.9742 22.9023 64.2315 23.3101 64.2351C23.5342 64.2371 23.7519 64.1599 23.924 64.017L26.9936 61.5502C28.1694 60.5861 29.7422 60.2583 31.2049 60.6721L42.4614 63.845C45.0515 64.5757 47.8338 64.0903 50.0233 62.5255L63.4201 53.0474C64.2721 52.4454 64.8336 51.515 64.9684 50.4808C65.1037 49.4466 64.8004 48.403 64.1316 47.6025L64.1312 47.6025ZM50.0347 45.8413C50.4645 45.5683 51.03 45.654 51.3598 46.0418L51.8416 46.6157L45.9266 50.5112L44.0733 49.748L50.0347 45.8413ZM49.8166 52.9957C49.4272 52.297 48.8237 51.7419 48.0953 51.4121L55.6056 46.4724C56.0346 46.2006 56.5981 46.2835 56.9307 46.6673L57.8376 47.7802L49.8166 52.9957Z" fill="white"/>
<path d="M42.9189 26.3342C43.8697 26.3654 44.8142 26.5003 45.7359 26.736C46.2554 26.8785 46.7924 26.5727 46.9349 26.0532C47.0774 25.5334 46.772 24.9968 46.2521 24.8542C45.4777 24.6561 44.6893 24.5161 43.8941 24.4352V23.1097C43.8941 22.571 43.4575 22.1344 42.9188 22.1344C42.3801 22.1344 41.9435 22.571 41.9435 23.1097V24.4464C39.3274 24.8022 39.0116 26.5863 39.0116 27.4011C39.0116 29.4266 41.0999 30.2698 42.3509 30.7976L42.5919 30.8953L42.9593 31.0446C44.2215 31.5436 44.7722 31.8594 44.7722 32.7659C44.7722 33.6723 44.1638 34.1141 42.9765 34.1658H42.7696C41.651 34.0629 40.5532 33.798 39.5106 33.3798C39.2669 33.2733 38.99 33.2709 38.7442 33.3738C38.4989 33.4762 38.3056 33.6747 38.2104 33.9233C38.1147 34.1718 38.1247 34.4483 38.238 34.6893C38.3516 34.9298 38.5586 35.1139 38.8107 35.1983C39.8236 35.5845 40.8734 35.8651 41.9435 36.036V37.3498C41.9435 37.8885 42.3801 38.3251 42.9188 38.3251C43.4575 38.3251 43.8941 37.8885 43.8941 37.3498V35.9903C45.667 35.6461 46.7227 34.4699 46.7227 32.737C46.7227 30.4422 44.8177 29.6846 43.6819 29.2316L43.108 28.9906C42.2131 28.6233 40.9793 28.1186 40.9793 27.4014C40.9621 27.0572 40.9621 26.334 42.9188 26.334L42.9189 26.3342Z" fill="white"/>
</svg>
