<svg width="82" height="82" viewBox="0 0 82 82" fill="none" xmlns="http://www.w3.org/2000/svg">
<circle cx="41" cy="41" r="41" fill="#2DADFF"/>
<path d="M22.0005 22.1422V53.7545C22.0005 56.0384 23.8588 57.8968 26.1428 57.8968H40.771C42.8627 60.9743 46.3917 63 50.3854 63C56.7909 63 62.002 57.7888 62.002 51.3835C62.002 46.0806 58.4302 41.596 53.566 40.2094V28.1978C53.566 27.9362 53.4571 27.6861 53.2655 27.5082L43.3007 18.2518C43.1265 18.0901 42.8976 18 42.6599 18H26.1423C23.8583 18 22 19.8583 22 22.1423L22.0005 22.1422ZM60.1191 51.384C60.1191 56.7511 55.7526 61.1181 50.385 61.1181C45.0175 61.1181 40.6509 56.7516 40.6509 51.384C40.6509 46.0169 45.0175 41.6499 50.385 41.6499C55.7521 41.6496 60.1191 46.0164 60.1191 51.384ZM43.6713 21.1661L50.3531 27.3735H45.9307C44.6846 27.3735 43.6713 26.3598 43.6713 25.114V21.1661ZM23.8829 22.1425C23.8829 20.8964 24.8963 19.8831 26.1423 19.8831H41.788V25.114C41.788 27.398 43.6463 29.2563 45.9303 29.2563H51.6821V39.84C51.2557 39.7922 50.823 39.767 50.3842 39.767C43.9788 39.767 38.7677 44.9782 38.7677 51.3835C38.7677 53.0286 39.1124 54.5945 39.7317 56.014L26.1423 56.0144C24.8963 56.0144 23.8829 55.0007 23.8829 53.7549V22.1425Z" fill="white"/>
<path d="M49.5997 46.4411V50.2865L45.7546 50.2862C45.2348 50.2862 44.8131 50.7078 44.8131 51.2276C44.8131 51.7475 45.2347 52.1691 45.7546 52.1691H49.6V56.5354C49.6 57.0552 50.0216 57.4769 50.5415 57.4769C51.0613 57.4769 51.483 57.0552 51.483 56.5354V52.1691H55.3284C55.8482 52.1691 56.2699 51.7475 56.2699 51.2276C56.2699 50.7078 55.8482 50.2862 55.3284 50.2862H51.483V46.4407C51.483 45.9209 51.0613 45.4993 50.5415 45.4993C50.0213 45.4996 49.5998 45.9209 49.5998 46.441L49.5997 46.4411Z" fill="white"/>
</svg>
