<svg width="82" height="82" viewBox="0 0 82 82" fill="none" xmlns="http://www.w3.org/2000/svg">
<circle cx="41" cy="41" r="41" fill="#2DADFF"/>
<path d="M62.5086 33.6396L44.4514 51.7196L40.2818 47.55L58.349 29.4801L62.5086 33.6396ZM63.6396 32.5086L59.4811 28.35L62.2444 25.5854C62.8701 24.9597 63.8829 24.9647 64.5115 25.5901L66.3993 27.4733C67.0265 28.099 67.0315 29.1133 66.4072 29.739L63.6407 32.5086L63.6396 32.5086ZM39.2465 48.7774L43.2386 52.7695L38.2226 53.7566L39.2465 48.7759V48.7774ZM55.4001 30.2L45.8001 19H28.2047C26.4351 19 25 20.4368 25 22.2111V58.9873C25 60.7615 26.4257 62.1983 28.1953 62.1983H52.2036C53.9682 62.1983 55.3989 60.7615 55.3989 59.0126V42.998L67.5269 30.87C68.7812 29.6157 68.7844 27.5836 67.543 26.3422L65.6552 24.4557C64.4087 23.2093 62.3959 23.2029 61.1274 24.4718L55.3995 30.1996L55.4001 30.2ZM53.8001 44.6V59.011C53.8001 59.8877 53.0833 60.5999 52.2001 60.5999H28.2001C27.3279 60.5999 26.6001 59.8863 26.6001 59.0078V22.1931C26.6001 21.3292 27.3137 20.601 28.1937 20.601H44.2001V28.5914C44.2001 30.3818 45.6322 31.801 47.3969 31.801H53.8001L37.8001 47.801L36.2001 55.801L44.2001 54.201L53.8001 44.601V44.6ZM45.8001 21.4L53.3201 30.2H47.3954C46.5219 30.2 45.8001 29.4768 45.8001 28.5857V21.4Z" fill="white"/>
</svg>
