<svg width="56" height="51" viewBox="0 0 56 51" fill="none" xmlns="http://www.w3.org/2000/svg">
<path d="M53.0249 18.1125L52.8499 17.9375C52.7624 17.85 52.6749 17.7625 52.5874 17.7625L52.4999 17.675C52.4124 17.5875 52.3249 17.5875 52.2374 17.5L51.9749 17.4125C51.7999 17.325 51.6249 17.2375 51.4499 17.2375C49.0874 16.45 46.6374 16.7125 44.4499 16.975H44.1874C43.8374 16.975 42.5249 17.15 41.2124 17.2375L40.3374 17.325L40.5999 16.275C41.0374 14.9625 41.3874 13.5625 41.8249 12.25C42.5249 10.15 42.6999 8.4 42.5249 6.65C42.2624 4.375 40.9499 2.275 38.9374 1.05C37.7999 0.35 36.5749 0 35.2624 0H34.9124C33.3374 0.0875 32.2874 1.1375 32.1124 2.625C32.0249 3.9375 31.8499 5.075 31.6749 6.2125C31.4124 8.05 30.8874 9.625 30.0999 10.9375C29.6624 11.6375 29.2249 12.3375 28.6124 12.95C27.7374 13.9125 26.8624 14.875 25.8124 16.0125L23.5374 18.6375C23.0999 19.1625 22.5749 19.775 21.8749 20.3875L21.5249 20.7375C21.1749 21 20.8249 21.2625 20.4749 21.4375C20.2999 21.525 19.9499 21.6125 19.5124 21.7875C18.1124 22.225 15.7499 22.8375 15.5749 25.025C15.5749 25.6375 15.4874 26.25 15.4874 26.775V27.125V28.6125V47.6875H19.5999C20.6499 47.8625 21.6999 48.0375 23.0999 48.3L23.7124 48.3875C26.4249 48.825 28.9624 49.2625 31.4999 49.525L33.5999 49.7875C35.7874 50.05 38.0624 50.4 40.2499 50.4C44.0999 50.4 47.7749 49.525 50.4879 46.025C52.2379 43.8375 52.5879 40.95 52.9379 38.5C53.0254 38.0625 53.0254 37.625 53.1129 37.275C53.3754 35.525 53.6379 33.6875 53.9004 31.9375C54.3379 29.225 54.7754 26.3375 55.1254 23.5375C55.4754 21.4375 54.6004 19.3375 53.0254 18.1125H53.0249ZM53.0249 23.1875C52.6749 25.9875 52.2374 28.7875 51.7999 31.5C51.5374 33.25 51.2749 35.0875 51.0124 36.8375C50.9249 37.275 50.9249 37.7125 50.8374 38.15C50.4874 40.5125 50.2249 42.9625 48.8249 44.625C45.2374 49.0875 39.4624 48.3 33.8629 47.6C33.1629 47.5125 32.3754 47.425 31.6754 47.3375C29.2254 47.075 26.6879 46.6375 23.9754 46.2L23.3629 46.1125C21.9629 45.85 20.9129 45.675 19.8629 45.5H17.5879V28.438V26.9505V26.6005C17.5879 26.0755 17.6754 25.5505 17.6754 24.938C17.6754 24.588 18.0254 24.238 20.0379 23.6255C20.5629 23.4505 21.0004 23.363 21.3504 23.188C21.9629 22.9255 22.4879 22.5755 22.9254 22.138C23.1004 21.963 23.2754 21.788 23.4504 21.7005C24.1504 21.088 24.7629 20.388 25.2004 19.863L27.4754 17.238C28.4379 16.1005 29.4004 15.138 30.1879 14.263C30.8879 13.4755 31.5004 12.688 31.9379 11.813C32.8129 10.238 33.4254 8.488 33.6879 6.388C33.8629 5.2505 34.0379 4.0255 34.1254 2.713C34.2129 2.2755 34.3879 2.1005 34.8254 2.013H35.0004C35.8754 2.013 36.7504 2.2755 37.5379 2.8005C38.9379 3.6755 39.9004 5.163 40.0754 6.8255C40.2504 8.2255 40.0754 9.6255 39.4629 11.463C39.0254 12.7755 38.5879 14.1755 38.2379 15.5755L37.6254 17.763C37.5379 18.2005 37.6254 18.638 37.8879 18.988C38.1504 19.338 38.5879 19.513 39.0254 19.513L41.2129 19.338C42.5254 19.2505 43.9254 19.163 44.2754 19.0755H44.5379C46.6379 18.9005 48.7379 18.638 50.6629 19.2505C50.7504 19.2505 50.8379 19.338 50.9254 19.338L51.1879 19.4255L51.6254 19.688C52.6754 20.563 53.2004 21.963 53.0254 23.188L53.0249 23.1875Z" fill="#2DADFF"/>
<path d="M11.2 19.2506H3.0625C1.4 19.2506 0 20.6506 0 22.3131V46.6381C0 48.3006 1.4 49.7006 3.0625 49.7006H11.2C12.8625 49.7006 14.2625 48.3006 14.2625 46.6381V22.2261C14.2625 20.5636 12.8625 19.2511 11.2 19.2511V19.2506ZM12.075 46.5506C12.075 46.9881 11.725 47.4256 11.2 47.4256H3.0625C2.625 47.4256 2.1875 47.0756 2.1875 46.5506V22.2256C2.1875 21.7881 2.5375 21.3506 3.0625 21.3506H11.2C11.6375 21.3506 12.075 21.7006 12.075 22.2256V46.5506Z" fill="#2DADFF"/>
</svg>
