<svg width="51" height="53" viewBox="0 0 51 53" fill="none" xmlns="http://www.w3.org/2000/svg">
<path fill-rule="evenodd" clip-rule="evenodd" d="M12.1699 7.19627e-05C10.7692 7.19627e-05 9.42629 0.555853 8.43608 1.54656C6.62981 3.35365 3.35446 6.62818 1.54736 8.43527C0.557871 9.42557 0.00087738 10.7688 0.00087738 12.1683V12.5398C0.00087738 13.3819 0.900416 13.4437 0.900416 13.4437H6.7177C8.50229 13.4437 10.2122 12.7349 11.4745 11.4728C12.7355 10.2118 13.4446 8.50069 13.4446 6.71683V0.899538C13.4446 0.899538 13.7289 0 12.5406 0L12.1699 7.19627e-05ZM11.6455 1.83893V6.71731C11.6455 8.02447 11.1266 9.27734 10.2018 10.2015C9.27815 11.1251 8.0248 11.6451 6.71764 11.6451H1.83927C1.9509 10.9155 2.29184 10.2356 2.81993 9.70748C4.6262 7.90121 7.90155 4.62586 9.70782 2.81876C10.2359 2.29149 10.9158 1.95055 11.6455 1.83931L11.6455 1.83893Z" fill="#2DADFF"/>
<path fill-rule="evenodd" clip-rule="evenodd" d="M19.8648 9.06318H31.2113C31.7077 9.06318 32.1109 8.65999 32.1109 8.16364C32.1109 7.66729 31.7077 7.2641 31.2113 7.2641H19.8648C19.3685 7.2641 18.9653 7.66729 18.9653 8.16364C18.9653 8.65999 19.3685 9.06318 19.8648 9.06318Z" fill="#2DADFF"/>
<path fill-rule="evenodd" clip-rule="evenodd" d="M30.3766 24.8182C30.3766 23.3275 29.1674 22.1196 27.678 22.1196H24.0799C22.5892 22.1196 21.3812 23.3275 21.3812 24.8182V41.5116C21.3812 43.0022 22.5892 44.2102 24.0799 44.2102H27.678C29.1674 44.2102 30.3766 43.0022 30.3766 41.5116V24.8182ZM28.5776 24.8182V41.5116C28.5776 42.0079 28.1744 42.4111 27.678 42.4111H24.0799C23.5823 42.4111 23.1803 42.0079 23.1803 41.5116V24.8182C23.1803 24.3218 23.5823 23.9186 24.0799 23.9186H27.678C28.1744 23.9186 28.5776 24.3218 28.5776 24.8182Z" fill="#2DADFF"/>
<path fill-rule="evenodd" clip-rule="evenodd" d="M40.9383 23.4946L42.2731 21.1835C42.794 20.2812 42.9341 19.2098 42.6654 18.2034C42.3956 17.1979 41.737 16.3397 40.8358 15.8196C40.835 15.8188 40.8342 15.818 40.833 15.818C39.9307 15.2971 38.8593 15.1558 37.8529 15.4257C36.8474 15.6947 35.9892 16.3529 35.4684 17.2553L32.3216 22.7055C32.0401 23.1939 31.5193 23.4942 30.9551 23.4942H29.4781C28.9805 23.4942 28.5785 23.8974 28.5785 24.3938V41.9343C28.5785 42.4318 28.9805 42.8338 29.4781 42.8338H44.8597C47.0177 42.8338 48.8583 41.2721 49.2088 39.1429C49.6827 36.2608 50.4115 31.8406 50.942 28.6178C51.1516 27.3412 50.791 26.0361 49.9533 25.0494C49.116 24.0635 47.8871 23.494 46.5925 23.494H40.937L40.9383 23.4946ZM33.8797 23.6054L37.0265 18.1551C37.3088 17.6656 37.7738 17.3094 38.3191 17.164C38.8641 17.0174 39.4452 17.0937 39.9339 17.3765L39.9367 17.3781C40.425 17.6596 40.7824 18.1246 40.9278 18.6699C41.0736 19.2149 40.9969 19.7959 40.7154 20.2847L38.9974 23.2596C38.7552 23.6797 38.7552 24.1969 38.9974 24.6161C39.2404 25.0362 39.6881 25.2944 40.172 25.2944H46.5937C47.3591 25.2944 48.0868 25.6317 48.5828 26.2156C49.0783 26.7995 49.2924 27.5714 49.1675 28.3267C48.6366 31.549 47.909 35.9692 47.4343 38.8518C47.2275 40.112 46.138 41.036 44.8606 41.036H30.3775V25.2946H30.955C32.1613 25.2946 33.2757 24.6512 33.8792 23.6063L33.8797 23.6054Z" fill="#2DADFF"/>
<path fill-rule="evenodd" clip-rule="evenodd" d="M39.0324 41.9352C39.0324 41.4388 38.6304 41.0356 38.1329 41.0356H30.3772V25.2942H30.9547C32.161 25.2942 33.2754 24.6509 33.879 23.606L37.0257 18.1557C37.308 17.6662 37.773 17.31 38.3184 17.1646C38.3284 17.1618 38.3392 17.1594 38.3489 17.1566C38.7509 17.0566 39.0324 16.6968 39.0324 16.2831V5.28101C39.0324 3.8803 38.4766 2.53737 37.4859 1.54716C36.4964 0.556863 35.1534 0.000671387 33.7528 0.000671387H12.1691C10.7683 0.000671387 9.42542 0.556452 8.4352 1.54716C6.62893 3.35425 3.35358 6.62878 1.54649 8.43587C0.556995 9.42617 0 10.7694 0 12.1689V46.8942C0 48.2949 0.556995 49.6378 1.54649 50.628C2.53678 51.6183 3.88004 52.1745 5.28034 52.1745H33.752C35.1527 52.1745 36.4957 51.6187 37.4851 50.628C38.4753 49.6377 39.0315 48.2945 39.0315 46.8942V41.9359L39.0324 41.9352ZM37.2333 15.6501C36.4976 15.9867 35.8776 16.5461 35.4676 17.2569L32.3208 22.7072C32.0393 23.1955 31.5185 23.4959 30.9542 23.4959H29.4773C28.9797 23.4959 28.5777 23.899 28.5777 24.3954V41.9359C28.5777 42.4334 28.9797 42.8354 29.4773 42.8354H37.2329V46.8941C37.2329 47.8178 36.8667 48.7033 36.2137 49.3562C35.5607 50.0084 34.6757 50.3754 33.7525 50.3754H5.2808C4.35716 50.3754 3.47165 50.0084 2.81956 49.3562C2.16659 48.7032 1.79954 47.8181 1.79954 46.8941V12.1699C1.79954 11.2463 2.16659 10.3608 2.81956 9.70784C4.62583 7.90157 7.90118 4.62622 9.70745 2.81913C10.3604 2.16696 11.2455 1.79991 12.1695 1.79991H33.7533C34.6761 1.79991 35.5612 2.16696 36.2145 2.81913C36.8675 3.4721 37.2337 4.35718 37.2337 5.28119L37.2333 15.6501Z" fill="#2DADFF"/>
<path fill-rule="evenodd" clip-rule="evenodd" d="M4.8123 27.8856H17.4058C17.9022 27.8856 18.3054 27.4824 18.3054 26.9861C18.3054 26.4897 17.9022 26.0865 17.4058 26.0865H4.8123C4.31595 26.0865 3.91276 26.4897 3.91276 26.9861C3.91276 27.4824 4.31595 27.8856 4.8123 27.8856Z" fill="#2DADFF"/>
<path fill-rule="evenodd" clip-rule="evenodd" d="M4.8123 34.4681H17.4058C17.9022 34.4681 18.3054 34.0641 18.3054 33.5686C18.3054 33.0723 17.9022 32.6691 17.4058 32.6691H4.8123C4.31595 32.6691 3.91276 33.0723 3.91276 33.5686C3.91276 34.0641 4.31595 34.4681 4.8123 34.4681Z" fill="#2DADFF"/>
<path fill-rule="evenodd" clip-rule="evenodd" d="M4.8123 41.0503H15.022C15.5184 41.0503 15.9215 40.6471 15.9215 40.1508C15.9215 39.6544 15.5184 39.2512 15.022 39.2512H4.8123C4.31595 39.2512 3.91276 39.6544 3.91276 40.1508C3.91276 40.6471 4.31595 41.0503 4.8123 41.0503Z" fill="#2DADFF"/>
</svg>
