<svg width="57" height="58" viewBox="0 0 57 58" fill="none" xmlns="http://www.w3.org/2000/svg">
<path d="M56.7383 45.4097L44.4474 33.1188C44.5082 33.0711 44.5722 33.0273 44.6386 32.988L47.9146 31.2448C48.7524 30.8043 49.3849 30.054 49.6772 29.1538C49.9694 28.2536 49.8986 27.2751 49.4795 26.4266L47.8478 23.0895V23.0891C47.5941 22.5738 47.5941 21.9694 47.8478 21.4541L49.4795 18.117V18.1166C49.8986 17.2681 49.9694 16.2896 49.6772 15.3894C49.3849 14.4892 48.7523 13.7389 47.9146 13.2983L44.6351 11.5573C44.1269 11.2893 43.7723 10.8006 43.6752 10.2344L43.0331 6.57563C42.8733 5.64323 42.3556 4.80981 41.5901 4.25363C40.8247 3.69738 39.8725 3.462 38.9361 3.59758L35.2578 4.11845H35.2574C34.6892 4.19757 34.1158 4.01149 33.7024 3.61349L31.0304 1.03061C30.3529 0.369777 29.4439 0 28.4976 0C27.5509 0 26.642 0.369777 25.9644 1.03061L23.2925 3.61349C22.879 4.0115 22.306 4.19758 21.7374 4.11845L18.0583 3.59758C17.1219 3.46239 16.1696 3.69778 15.4047 4.25403C14.6393 4.81028 14.1216 5.64324 13.9613 6.57572L13.3192 10.2345C13.2222 10.8011 12.8667 11.2902 12.3582 11.5573L9.0822 13.2984C8.24443 13.739 7.61187 14.4893 7.31963 15.3895C7.0274 16.2897 7.09816 17.2682 7.51724 18.1167L9.14901 21.4538V21.4542C9.40269 21.9695 9.40269 22.5739 9.14901 23.0891L7.51368 26.4267C7.0946 27.2752 7.02382 28.2537 7.31607 29.1539C7.60831 30.0541 8.24091 30.8044 9.07864 31.2449L12.3617 32.986C12.4277 33.0258 12.4913 33.0695 12.5522 33.1168L0.261228 45.4078C0.0322038 45.6368 -0.0548762 45.972 0.0345856 46.2833C0.12365 46.5951 0.374945 46.8332 0.690642 46.906L8.33515 48.6702L10.0993 56.3147V56.3151C10.1721 56.6304 10.4107 56.8817 10.722 56.9712C11.0333 57.0602 11.3685 56.9735 11.5976 56.7441L25.3878 42.9538L25.966 43.5141H25.9656C26.6435 44.1749 27.5525 44.5447 28.4988 44.5447C29.4451 44.5447 30.3541 44.1749 31.032 43.5141L31.6101 42.9538L45.4024 56.7462C45.6315 56.9752 45.9667 57.0623 46.278 56.9728C46.5893 56.8837 46.8279 56.6324 46.9006 56.3167L48.6648 48.6722L56.3094 46.908C56.6251 46.8353 56.8764 46.5967 56.9654 46.2854C57.0549 45.974 56.9678 45.6389 56.7388 45.4098L56.7383 45.4097ZM11.471 54.35L9.94336 47.729C9.86702 47.397 9.60738 47.1373 9.27537 47.061L2.65434 45.5333L13.4052 34.7825L13.9635 37.9673V37.9677C14.1241 38.8997 14.6422 39.7323 15.4072 40.2886C16.1726 40.8448 17.1245 41.0806 18.0605 40.9458L21.7388 40.425H21.7392C22.3074 40.3466 22.8803 40.5327 23.2942 40.9299L24.1057 41.7144L11.471 54.35ZM27.2044 42.2331L26.0064 41.0753L24.5332 39.6502H24.5336C23.8577 38.9922 22.9515 38.6244 22.0083 38.624C21.8354 38.6244 21.6624 38.6367 21.491 38.6606L17.8108 39.1819C17.3321 39.2522 16.845 39.1322 16.4533 38.8475C16.0621 38.5632 15.7977 38.1365 15.7169 37.6594L15.0748 34.0006V34.001C14.9961 33.5855 14.8454 33.1871 14.6295 32.8233C14.6092 32.78 14.5857 32.7382 14.5591 32.6989C14.2263 32.1577 13.7571 31.714 13.1981 31.4125L9.91623 29.6715C9.48761 29.4468 9.16396 29.0635 9.01405 28.6039C8.86455 28.1439 8.90033 27.6437 9.11465 27.2099L10.746 23.8751C11.2422 22.8656 11.2422 21.6835 10.746 20.674L9.11424 17.3368H9.11464C8.90032 16.9031 8.86454 16.4029 9.01404 15.9429C9.16395 15.4828 9.48759 15.0999 9.91622 14.8753L13.1973 13.1342C14.1925 12.6106 14.8875 11.6539 15.0783 10.5457L15.7205 6.88695C15.7996 6.40982 16.0632 5.98278 16.4541 5.69765C16.8449 5.41217 17.332 5.29209 17.8107 5.36207L21.4898 5.88294V5.88334C22.6028 6.04318 23.7268 5.67738 24.5324 4.89368L27.2043 2.3108C27.5506 1.97283 28.0151 1.78396 28.4986 1.78396C28.9821 1.78396 29.4465 1.97283 29.7928 2.3108L32.4648 4.89368C33.2699 5.67777 34.3935 6.04358 35.5061 5.88413L39.1863 5.36207C39.6651 5.29169 40.1525 5.41137 40.5438 5.69606C40.9354 5.98035 41.1999 6.40699 41.2802 6.88454L41.9223 10.5433V10.5429C42.1132 11.6511 42.8078 12.6073 43.8027 13.1314L47.0845 14.8725C47.5131 15.0971 47.8368 15.4804 47.9867 15.94C48.1362 16.4001 48.1004 16.9003 47.8861 17.334L46.2512 20.6688C45.755 21.6784 45.755 22.8604 46.2512 23.87L47.8829 27.2071H47.8825C48.0969 27.6409 48.1326 28.1411 47.9831 28.6011C47.8332 29.0611 47.5096 29.444 47.081 29.6687L43.7999 31.4097C42.8047 31.9334 42.1097 32.89 41.9189 33.9982L41.2767 37.657C41.1964 38.1337 40.9328 38.56 40.5423 38.8451C40.1515 39.1298 39.6648 39.2506 39.1865 39.1819L35.5054 38.6598C34.3929 38.5004 33.2688 38.8657 32.4629 39.6495L29.7909 42.2323C29.445 42.5695 28.981 42.7584 28.4979 42.7588C28.0148 42.7588 27.5508 42.5703 27.2045 42.2331L27.2044 42.2331ZM47.7219 47.0613C47.3899 47.1377 47.1303 47.3973 47.0539 47.7293L45.5263 54.3504L32.8903 41.7144L33.7006 40.9299H33.701C34.1149 40.5331 34.6879 40.347 35.256 40.4249L38.9352 40.9458C39.8715 41.081 40.8238 40.8452 41.5888 40.2889C42.3538 39.7327 42.8718 38.8997 43.0322 37.9676L43.5904 34.7828L54.3423 45.5337L47.7219 47.0613Z" fill="#2DADFF"/>
<path d="M41.8578 22.2709C41.8582 19.0721 40.7103 15.9795 38.6229 13.5561C38.4754 13.3585 38.2523 13.2313 38.0074 13.2046C37.762 13.1776 37.5167 13.2535 37.3298 13.4142C37.143 13.5748 37.0308 13.8058 37.0201 14.0519C37.0098 14.2981 37.102 14.5378 37.2746 14.714C39.8468 17.706 40.7162 21.803 39.5803 25.5819C38.4447 29.3608 35.4606 32.2999 31.665 33.3779C27.8694 34.4562 23.786 33.525 20.8337 30.9075C17.8806 28.29 16.4664 24.3477 17.0815 20.4507C17.6966 16.553 20.2564 13.2381 23.8715 11.6571C27.487 10.0763 31.6587 10.4476 34.9379 12.6424C35.1339 12.7824 35.3781 12.8373 35.615 12.7939C35.8516 12.751 36.0612 12.6138 36.1952 12.4142C36.3292 12.2142 36.3769 11.9685 36.3268 11.7331C36.2771 11.4977 36.1339 11.2925 35.9304 11.1641C32.6059 8.93871 28.4593 8.32035 24.6298 9.4786C20.8008 10.6368 17.6923 13.4504 16.1591 17.1449C14.6255 20.8399 14.8283 25.0272 16.7122 28.5564C18.5957 32.0856 21.9614 34.585 25.8846 35.3679C29.8078 36.1504 33.875 35.1337 36.9684 32.5973C40.0622 30.0609 41.8562 26.2716 41.8578 22.2709L41.8578 22.2709Z" fill="#2DADFF"/>
<path d="M33.6411 18.0959L26.7012 25.4044L23.3772 21.6175C23.2261 21.4247 23.0026 21.3022 22.7585 21.2796C22.5148 21.2569 22.2722 21.3356 22.0881 21.4975C21.9041 21.6593 21.7947 21.8895 21.786 22.1344C21.7772 22.379 21.8695 22.6167 22.0412 22.7913L26.0038 27.3113C26.1689 27.4998 26.4054 27.6099 26.6559 27.6151H26.6738H26.6734C26.9179 27.6151 27.1513 27.5145 27.3191 27.3371L34.9299 19.3213C35.1016 19.1519 35.1971 18.9201 35.1947 18.6788C35.1923 18.4378 35.0921 18.208 34.9171 18.0418C34.7422 17.8756 34.5072 17.7877 34.2663 17.7981C34.0253 17.808 33.7987 17.9157 33.6384 18.0959L33.6411 18.0959Z" fill="#2DADFF"/>
</svg>
