<svg width="82" height="82" viewBox="0 0 82 82" fill="none" xmlns="http://www.w3.org/2000/svg">
<circle cx="41" cy="41" r="41" fill="#2DADFF"/>
<path fill-rule="evenodd" clip-rule="evenodd" d="M55.5493 52.8085C56.7418 53.7842 56.8318 55.4852 55.7442 56.5727L51.1469 61.1702C47.4278 64.8891 34.6223 59.6386 27.6929 52.7092C20.7624 45.7787 15.512 32.9742 19.2319 29.2552L23.8295 24.6576C24.9155 23.5715 26.6188 23.6618 27.5933 24.8528L33.6912 32.3059C34.6332 33.4573 34.5486 35.2153 33.499 36.265L30.5944 39.1696C30.0079 39.7561 29.8621 40.8598 30.3104 41.6123C30.3397 41.6723 30.406 41.7974 30.5098 41.9799C30.6872 42.2907 30.9055 42.6433 31.1661 43.0292C31.9146 44.1392 32.8492 45.2909 33.9805 46.4221C35.1118 47.5532 36.2647 48.4886 37.3767 49.2386C37.7638 49.4995 38.117 49.7184 38.4287 49.8964C38.6118 50.0008 38.7372 50.0671 38.841 50.1197C39.5503 50.5326 40.6517 50.3891 41.2331 49.808L44.1378 46.9033C45.1866 45.8543 46.9463 45.7703 48.0965 46.7111L55.5493 52.8085ZM54.6831 53.867L47.2299 47.769C46.6227 47.2725 45.6553 47.3186 45.1043 47.8699L42.1997 50.7745C41.1796 51.7946 39.3986 52.0265 38.196 51.3246C38.1099 51.2823 37.9588 51.2028 37.7503 51.0836C37.4096 50.8893 37.0272 50.6524 36.6113 50.372C35.4295 49.575 34.2086 48.5845 33.0128 47.3887C31.8168 46.1926 30.8275 44.9733 30.0316 43.7935C29.7515 43.3785 29.5155 42.997 29.3215 42.6572C29.2026 42.449 29.123 42.2981 29.1091 42.2638C28.3635 41.0204 28.5998 39.2287 29.6267 38.2019L32.5313 35.2973C33.0832 34.7454 33.1296 33.7797 32.6322 33.1717L26.5342 25.7183C26.0711 25.1522 25.3083 25.1117 24.7961 25.6242L20.1985 30.2218C17.2433 33.1767 22.2123 45.2943 28.6595 51.7421C35.1062 58.1888 47.2247 63.1575 50.1798 60.2032L54.7771 55.6056C55.2911 55.0915 55.2509 54.3317 54.6831 53.867ZM45.3089 28.8904C45.3089 23.9801 49.2886 20 54.1993 20C59.11 20 63.0896 23.9797 63.0896 28.8904C63.0896 33.801 59.11 37.7807 54.1993 37.7807C49.2891 37.7807 45.3089 33.801 45.3089 28.8904ZM46.6765 28.8904C46.6765 33.0458 50.0442 36.413 54.199 36.413C58.3545 36.413 61.7216 33.0454 61.7216 28.8904C61.7216 24.7352 58.3541 21.368 54.199 21.368C50.0439 21.368 46.6765 24.7356 46.6765 28.8904ZM51.9472 28.4068L53.5153 29.9749L56.4509 27.0393C56.718 26.7722 57.151 26.7722 57.418 27.0393C57.6851 27.3063 57.6851 27.7393 57.418 28.0064L53.9988 31.4256C53.7317 31.6927 53.2987 31.6927 53.0317 31.4256L50.98 29.3739C50.7129 29.1068 50.7129 28.6738 50.98 28.4068C51.247 28.1398 51.6801 28.1397 51.9472 28.4068Z" fill="white" stroke="white" stroke-width="0.5"/>
</svg>
